<?xml version="1.0" encoding="UTF-8" standalone="no"?>
<!-- Created with Inkscape (http://www.inkscape.org/) -->

<svg
   xmlns:dc="http://purl.org/dc/elements/1.1/"
   xmlns:cc="http://creativecommons.org/ns#"
   xmlns:rdf="http://www.w3.org/1999/02/22-rdf-syntax-ns#"
   xmlns:svg="http://www.w3.org/2000/svg"
   xmlns="http://www.w3.org/2000/svg"
   xmlns:sodipodi="http://sodipodi.sourceforge.net/DTD/sodipodi-0.dtd"
   xmlns:inkscape="http://www.inkscape.org/namespaces/inkscape"
   width="300"
   height="300"
   viewBox="0 0 79.374998 79.375002"
   version="1.1"
   id="svg1817"
   inkscape:version="0.92.5 (2060ec1f9f, 2020-04-08)"
   sodipodi:docname="helloBoy.svg">
  <defs
     id="defs1811" />
  <sodipodi:namedview
     id="base"
     pagecolor="#ffffff"
     bordercolor="#666666"
     borderopacity="1.0"
     inkscape:pageopacity="0.0"
     inkscape:pageshadow="2"
     inkscape:zoom="1.8844568"
     inkscape:cx="150.00001"
     inkscape:cy="150"
     inkscape:document-units="px"
     inkscape:current-layer="layer1"
     showgrid="false"
     units="px"
     inkscape:window-width="1294"
     inkscape:window-height="704"
     inkscape:window-x="72"
     inkscape:window-y="27"
     inkscape:window-maximized="1" />
  <metadata
     id="metadata1814">
    <rdf:RDF>
      <cc:Work
         rdf:about="">
        <dc:format>image/svg+xml</dc:format>
        <dc:type
           rdf:resource="http://purl.org/dc/dcmitype/StillImage" />
        <dc:title></dc:title>
      </cc:Work>
    </rdf:RDF>
  </metadata>
  <g
     inkscape:label="Layer 1"
     inkscape:groupmode="layer"
     id="layer1"
     transform="translate(0,-217.62498)">
    <g
       id="g608"
       transform="matrix(-0.24025341,0,0,-0.24025341,297.43671,328.09771)"
       inkscape:export-xdpi="96"
       inkscape:export-ydpi="96">
      <g
         transform="translate(930.9562,287.1244)"
         id="g22">
        <path
           inkscape:connector-curvature="0"
           id="path24"
           style="fill:#eaf0ff;fill-opacity:1;fill-rule:evenodd;stroke:none"
           d="m 0,0 c 0,79.722 64.627,144.348 144.348,144.348 79.721,0 144.348,-64.626 144.348,-144.348 0,-79.722 -64.627,-144.348 -144.348,-144.348 C 64.627,-144.348 0,-79.722 0,0" />
      </g>
      <g
         transform="translate(940.5387,236.5585)"
         id="g26">
        <path
           inkscape:connector-curvature="0"
           id="path28"
           style="fill:#ffffff;fill-opacity:1;fill-rule:evenodd;stroke:none"
           d="M 0,0 C 4.062,3.75 18.31,16.832 21.264,18.165 24.219,19.499 58.422,-18.664 55.043,-21.394 51.664,-24.124 33.783,-40.593 27.06,-44.78 13.625,-30.16 4.286,-13.37 0,0" />
      </g>
      <g
         transform="translate(939.1715,239.8768)"
         id="g30">
        <path
           inkscape:connector-curvature="0"
           id="path32"
           style="fill:none;stroke:#1b3c87;stroke-width:3.69000006;stroke-linecap:round;stroke-linejoin:round;stroke-miterlimit:4;stroke-dasharray:none;stroke-opacity:1"
           d="m 0,0 c 4.062,3.75 17.81,16.431 20.764,17.764 2.954,1.335 37.408,-39.652 34.029,-42.382 -3.378,-2.73 -21.312,-20.234 -26.611,-23.59" />
      </g>
      <g
         transform="translate(1029.1559,279.6639)"
         id="g34">
        <path
           inkscape:connector-curvature="0"
           id="path36"
           style="fill:#08c6ab;fill-opacity:1;fill-rule:evenodd;stroke:none"
           d="m 0,0 c 19.602,-29.812 -28.539,-67.226 -35.908,-69.375 -7.37,-2.149 -39.096,41.323 -36.799,47.042 C -70.409,-16.613 -23.671,36.001 0,0" />
      </g>
      <g
         transform="translate(982.7404,285.2909)"
         id="g38">
        <path
           inkscape:connector-curvature="0"
           id="path40"
           style="fill:none;stroke:#1b3c87;stroke-width:3.69000006;stroke-linecap:round;stroke-linejoin:round;stroke-miterlimit:4;stroke-dasharray:none;stroke-opacity:1"
           d="m 0,0 c 14.966,10.796 33.594,17.025 45.821,-2.311 18.85,-29.811 -27.444,-67.222 -34.531,-69.372 -7.087,-2.148 -37.596,41.322 -35.387,47.041 0.429,1.107 2.459,3.974 5.621,7.614" />
      </g>
      <path
         inkscape:connector-curvature="0"
         id="path44"
         style="fill:#08c6ab;fill-opacity:1;fill-rule:evenodd;stroke:none"
         d="m 0,0 c -22.079,0.132 -43.803,-4.116 -54.51,-12.434 -17.392,-13.511 -28.952,-97.03 -23.966,-121.884 23.887,-17.509 53.352,-27.854 85.238,-27.854 25.171,0 48.833,6.451 69.436,17.777 3.647,31.033 -5.343,119.75 -19.562,130.543 C 44.513,-4.648 22.08,-0.133 0,0"
         transform="translate(1068.5411,304.9496)" />
      <g
         transform="translate(994.3722,256.9178)"
         id="g46">
        <path
           inkscape:connector-curvature="0"
           id="path48"
           style="fill:none;stroke:#1b3c87;stroke-width:3.69000006;stroke-linecap:round;stroke-linejoin:round;stroke-miterlimit:4;stroke-dasharray:none;stroke-opacity:1"
           d="M 0,0 C 4.184,18.365 9.785,33.681 16.421,38.835 37.835,55.472 103.319,55.826 127.566,37.42 142.65,25.97 152.52,-73.372 146.326,-98.148" />
      </g>
      <g
         transform="translate(986.9005,173.4584)"
         id="g50">
        <path
           inkscape:connector-curvature="0"
           id="path52"
           style="fill:none;stroke:#1b3c87;stroke-width:3.69000006;stroke-linecap:round;stroke-linejoin:round;stroke-miterlimit:4;stroke-dasharray:none;stroke-opacity:1"
           d="M 0,0 C -1.001,6.323 -1.064,16.578 -0.309,28.555" />
      </g>
      <g
         transform="translate(1161.3219,169.911)"
         id="g54">
        <path
           inkscape:connector-curvature="0"
           id="path56"
           style="fill:#ffffff;fill-opacity:1;fill-rule:evenodd;stroke:none"
           d="M 0,0 C -3.076,3.076 -24.281,31.997 -26.67,34.72 -29.059,37.444 16.277,75.036 19.065,71.749 21.854,68.462 33.032,52.816 38.244,44.216 34.053,36.672 10.897,7.439 0,0" />
      </g>
      <g
         transform="translate(1162.3551,172.2064)"
         id="g58">
        <path
           inkscape:connector-curvature="0"
           id="path60"
           style="fill:none;stroke:#1b3c87;stroke-width:3.69000006;stroke-linecap:round;stroke-linejoin:round;stroke-miterlimit:4;stroke-dasharray:none;stroke-opacity:1"
           d="M 0,0 C -2.573,3.507 -25.554,35.167 -27.944,37.891 -30.333,40.615 15.004,78.207 17.792,74.92 20.581,71.632 33.934,53.357 38.533,44.414" />
      </g>
      <g
         transform="translate(1112.6066,295.5433)"
         id="g62">
        <path
           inkscape:connector-curvature="0"
           id="path64"
           style="fill:#08c6ab;fill-opacity:1;fill-rule:evenodd;stroke:none"
           d="M 0,0 C 22.897,15.705 78.148,-38.246 78.01,-54.331 77.872,-70.417 28.744,-99.636 20.561,-95.416 11.541,-90.765 -35.129,-24.094 0,0" />
      </g>
      <g
         transform="translate(1098.8112,260.4305)"
         id="g66">
        <path
           inkscape:connector-curvature="0"
           id="path68"
           style="fill:none;stroke:#1b3c87;stroke-width:3.69000006;stroke-linecap:round;stroke-linejoin:round;stroke-miterlimit:4;stroke-dasharray:none;stroke-opacity:1"
           d="M 0,0 C -3.083,14.954 -1.105,29.298 11.64,38.038 34.537,53.743 89.788,-0.207 89.649,-16.293 89.51,-32.378 40.384,-61.597 32.2,-57.378 c -2.619,1.351 -8.411,7.929 -14.454,17.175" />
      </g>
      <g
         transform="translate(930.9562,287.1244)"
         id="g70">
        <path
           inkscape:connector-curvature="0"
           id="path72"
           style="fill:none;stroke:#1b3c87;stroke-width:3.69000006;stroke-linecap:round;stroke-linejoin:round;stroke-miterlimit:4;stroke-dasharray:none;stroke-opacity:1"
           d="m 0,0 c 0,79.722 64.627,144.348 144.348,144.348 79.721,0 144.348,-64.626 144.348,-144.348 0,-79.722 -64.627,-144.348 -144.348,-144.348 C 64.627,-144.348 0,-79.722 0,0 Z" />
      </g>
      <g
         transform="translate(1199.3893,263.0995)"
         id="g74">
        <path
           inkscape:connector-curvature="0"
           id="path76"
           style="fill:#ffffff;fill-opacity:1;fill-rule:evenodd;stroke:none"
           d="M 0,0 C 0.142,4.147 8.224,5.829 18.051,3.758 27.88,1.687 35.731,-3.354 35.59,-7.499 35.448,-11.646 27.366,-13.328 17.538,-11.257 7.71,-9.187 -0.142,-4.146 0,0" />
      </g>
      <g
         transform="translate(1202.3068,278.9633)"
         id="g78">
        <path
           inkscape:connector-curvature="0"
           id="path80"
           style="fill:#ffffff;fill-opacity:1;fill-rule:evenodd;stroke:none"
           d="M 0,0 C 0.142,4.146 8.224,5.83 18.052,3.758 27.88,1.687 35.732,-3.353 35.591,-7.5 35.449,-11.646 27.366,-13.329 17.538,-11.258 7.71,-9.187 -0.142,-4.146 0,0" />
      </g>
      <g
         transform="translate(1201.9303,295.3583)"
         id="g82">
        <path
           inkscape:connector-curvature="0"
           id="path84"
           style="fill:#ffffff;fill-opacity:1;fill-rule:evenodd;stroke:none"
           d="M 0,0 C 0.142,4.146 8.224,5.829 18.053,3.758 27.88,1.687 35.732,-3.353 35.59,-7.5 35.449,-11.647 27.366,-13.329 17.538,-11.258 7.71,-9.187 -0.142,-4.146 0,0" />
      </g>
      <g
         transform="translate(1205.9698,301.3749)"
         id="g86">
        <path
           inkscape:connector-curvature="0"
           id="path88"
           style="fill:none;stroke:#1b3c87;stroke-width:3.69000006;stroke-linecap:round;stroke-linejoin:round;stroke-miterlimit:4;stroke-dasharray:none;stroke-opacity:1"
           d="m 0,0 c 3.229,0.597 7.553,0.469 12.28,-0.526 9.828,-2.072 17.68,-7.112 17.538,-11.258 -0.095,-2.8 -3.812,-4.477 -9.242,-4.633" />
      </g>
      <g
         transform="translate(1203.548,284.1654)"
         id="g90">
        <path
           inkscape:connector-curvature="0"
           id="path92"
           style="fill:none;stroke:#1b3c87;stroke-width:3.69000006;stroke-linecap:round;stroke-linejoin:round;stroke-miterlimit:4;stroke-dasharray:none;stroke-opacity:1"
           d="m 0,0 c 3.239,1.402 8.803,1.611 15.079,0.288 9.828,-2.071 17.68,-7.112 17.538,-11.258 -0.103,-3.023 -4.429,-4.737 -10.574,-4.64" />
      </g>
      <g
         transform="translate(1205.5665,269.3929)"
         id="g94">
        <path
           inkscape:connector-curvature="0"
           id="path96"
           style="fill:none;stroke:#1b3c87;stroke-width:3.69000006;stroke-linecap:round;stroke-linejoin:round;stroke-miterlimit:4;stroke-dasharray:none;stroke-opacity:1"
           d="m 0,0 c 2.897,0.23 6.392,-0.014 10.143,-0.804 9.827,-2.071 17.679,-7.11 17.538,-11.258 -0.089,-2.59 -3.28,-4.22 -8.059,-4.572" />
      </g>
      <g
         transform="translate(912.2257,289.3392)"
         id="g98">
        <path
           inkscape:connector-curvature="0"
           id="path100"
           style="fill:#ffffff;fill-opacity:1;fill-rule:evenodd;stroke:none"
           d="M 0,0 C 0.142,4.146 8.225,5.829 18.052,3.758 27.88,1.687 35.732,-3.353 35.59,-7.5 35.448,-11.646 27.367,-13.329 17.538,-11.258 7.71,-9.187 -0.142,-4.146 0,0" />
      </g>
      <g
         transform="translate(915.1437,305.2035)"
         id="g102">
        <path
           inkscape:connector-curvature="0"
           id="path104"
           style="fill:#ffffff;fill-opacity:1;fill-rule:evenodd;stroke:none"
           d="M 0,0 C 0.142,4.146 8.225,5.829 18.052,3.757 27.88,1.687 35.732,-3.354 35.59,-7.5 35.448,-11.647 27.367,-13.329 17.539,-11.258 7.71,-9.187 -0.142,-4.147 0,0" />
      </g>
      <g
         transform="translate(914.7667,321.5985)"
         id="g106">
        <path
           inkscape:connector-curvature="0"
           id="path108"
           style="fill:#ffffff;fill-opacity:1;fill-rule:evenodd;stroke:none"
           d="M 0,0 C 0.142,4.146 8.225,5.829 18.053,3.757 27.881,1.687 35.732,-3.354 35.591,-7.5 35.449,-11.647 27.367,-13.329 17.539,-11.258 7.71,-9.187 -0.141,-4.147 0,0" />
      </g>
      <g
         transform="translate(916.8009,317.6776)"
         id="g110">
        <path
           inkscape:connector-curvature="0"
           id="path112"
           style="fill:none;stroke:#1b3c87;stroke-width:3.69000006;stroke-linecap:round;stroke-linejoin:round;stroke-miterlimit:4;stroke-dasharray:none;stroke-opacity:1"
           d="m 0,0 c -3.025,1.996 -4.849,4.227 -4.78,6.244 0.142,4.147 8.225,5.829 18.052,3.757 4.403,-0.927 8.408,-2.45 11.478,-4.222" />
      </g>
      <g
         transform="translate(920.9615,299.1991)"
         id="g114">
        <path
           inkscape:connector-curvature="0"
           id="path116"
           style="fill:none;stroke:#1b3c87;stroke-width:3.69000006;stroke-linecap:round;stroke-linejoin:round;stroke-miterlimit:4;stroke-dasharray:none;stroke-opacity:1"
           d="m 0,0 c -5.212,2.413 -8.659,5.568 -8.564,8.328 0.142,4.146 8.225,5.828 18.052,3.758 4.095,-0.863 7.847,-2.242 10.821,-3.856" />
      </g>
      <g
         transform="translate(923.6964,281.2372)"
         id="g118">
        <path
           inkscape:connector-curvature="0"
           id="path120"
           style="fill:none;stroke:#1b3c87;stroke-width:3.69000006;stroke-linecap:round;stroke-linejoin:round;stroke-miterlimit:4;stroke-dasharray:none;stroke-opacity:1"
           d="m 0,0 c -8.215,2.393 -14.342,6.759 -14.217,10.425 0.142,4.147 8.225,5.83 18.052,3.759 5.749,-1.212 10.822,-3.438 14.014,-5.909" />
      </g>
      <g
         transform="translate(1090.6285,336.6683)"
         id="g122">
        <path
           inkscape:connector-curvature="0"
           id="path124"
           style="fill:#ffffff;fill-opacity:1;fill-rule:evenodd;stroke:none"
           d="m 0,0 c -0.935,-5.323 -5.251,-26.758 -1.942,-49.992 -3.812,-2.876 -26.039,-4.962 -32.152,0 0.216,9.424 0.431,28.269 -0.431,33.089 C -35.389,-12.084 0.936,5.322 0,0" />
      </g>
      <g
         transform="translate(1054.0382,289.7675)"
         id="g126">
        <path
           inkscape:connector-curvature="0"
           id="path128"
           style="fill:none;stroke:#1b3c87;stroke-width:3.69000006;stroke-linecap:round;stroke-linejoin:round;stroke-miterlimit:4;stroke-dasharray:none;stroke-opacity:1"
           d="M 0,0 C 0.215,9.423 0.431,28.269 -0.432,33.088 -1.295,37.908 35.029,55.314 34.095,49.992 33.159,44.668 28.843,23.234 32.152,0 30.427,-1.302 24.929,-2.441 18.86,-2.84" />
      </g>
      <g
         transform="translate(1019.1359,367.8749)"
         id="g130">
        <path
           inkscape:connector-curvature="0"
           id="path132"
           style="fill:#ffffff;fill-opacity:1;fill-rule:evenodd;stroke:none"
           d="M 0,0 C 2.115,25.95 21.59,45.567 43.498,43.817 65.407,42.067 81.452,19.612 79.335,-6.338 77.22,-32.287 57.745,-51.905 35.837,-50.155 13.929,-48.405 -2.117,-25.95 0,0" />
      </g>
      <g
         transform="translate(1074.8297,326.2543)"
         id="g134">
        <path
           inkscape:connector-curvature="0"
           id="path136"
           style="fill:none;stroke:#1b3c87;stroke-width:3.69000006;stroke-linecap:round;stroke-linejoin:round;stroke-miterlimit:4;stroke-dasharray:none;stroke-opacity:1"
           d="m 0,0 c -6.774,-4.621 -14.699,-7.005 -22.969,-6.344 -10.202,0.815 -19.134,6.12 -25.551,14.177" />
      </g>
      <g
         transform="translate(1017.7965,350.9901)"
         id="g138">
        <path
           inkscape:connector-curvature="0"
           id="path140"
           style="fill:none;stroke:#1b3c87;stroke-width:3.69000006;stroke-linecap:round;stroke-linejoin:round;stroke-miterlimit:4;stroke-dasharray:none;stroke-opacity:1"
           d="m 0,0 c -1.657,5.929 -2.318,12.386 -1.773,19.075 2.115,25.95 21.591,45.568 43.5,43.818 C 63.634,61.142 79.679,38.688 77.564,12.737 76.926,4.919 74.713,-2.325 71.331,-8.583" />
      </g>
      <g
         transform="translate(1056.5597,376.9896)"
         id="g142">
        <path
           inkscape:connector-curvature="0"
           id="path144"
           style="fill:#1b3c87;fill-opacity:1;fill-rule:evenodd;stroke:none"
           d="M 0,0 C 0.303,2.805 1.578,4.967 2.847,4.831 4.116,4.692 4.9,2.308 4.596,-0.496 4.292,-3.301 3.018,-5.463 1.75,-5.326 0.479,-5.188 -0.303,-2.804 0,0" />
      </g>
      <g
         transform="translate(1039.1031,374.6395)"
         id="g146">
        <path
           inkscape:connector-curvature="0"
           id="path148"
           style="fill:none;stroke:#1b3c87;stroke-width:3.69000006;stroke-linecap:round;stroke-linejoin:round;stroke-miterlimit:4;stroke-dasharray:none;stroke-opacity:1"
           d="M 0,0 C -1.007,-4.342 -3.798,-9.303 -7.132,-11.939" />
      </g>
      <g
         transform="translate(1047.2438,347.6224)"
         id="g150">
        <path
           inkscape:connector-curvature="0"
           id="path152"
           style="fill:none;stroke:#1b3c87;stroke-width:3.69000006;stroke-linecap:round;stroke-linejoin:round;stroke-miterlimit:4;stroke-dasharray:none;stroke-opacity:1"
           d="M 0,0 C 0,2.548 2.065,4.614 4.612,4.614 7.16,4.614 9.225,2.548 9.225,0 9.225,-2.547 7.16,-4.612 4.612,-4.612 2.065,-4.612 0,-2.547 0,0 Z" />
      </g>
      <g
         transform="translate(1085.8156,360.434)"
         id="g154">
        <path
           inkscape:connector-curvature="0"
           id="path156"
           style="fill:#726eff;fill-opacity:1;fill-rule:evenodd;stroke:none"
           d="m 0,0 c -2.785,0.199 -10.779,11.604 -2.578,19.444 -4.024,3.921 -27.695,21.639 -56.134,10.65 -3.695,3.758 -13.78,18.865 -5.075,25.379 8.706,6.513 12.342,-1.363 13.47,-4.494 -2.63,8.266 -1.15,30.5 20.988,30.746 C -7.191,81.972 16.611,17.288 15.649,5.68 14.686,-5.926 14.639,-7.494 0,0" />
      </g>
      <g
         transform="translate(1084.8546,412.08)"
         id="g158">
        <path
           inkscape:connector-curvature="0"
           id="path160"
           style="fill:none;stroke:#1b3c87;stroke-width:3.69000006;stroke-linecap:round;stroke-linejoin:round;stroke-miterlimit:4;stroke-dasharray:none;stroke-opacity:1"
           d="m 0,0 c 8.375,-17.36 13.901,-35.933 13.428,-41.646 -0.963,-11.608 -1.011,-13.176 -15.649,-5.682 -2.784,0.199 -10.779,11.605 -2.578,19.445 -3.184,3.102 -18.672,14.845 -39.089,14.165" />
      </g>
      <g
         transform="translate(1023.921,394.8466)"
         id="g162">
        <path
           inkscape:connector-curvature="0"
           id="path164"
           style="fill:none;stroke:#1b3c87;stroke-width:3.69000006;stroke-linecap:round;stroke-linejoin:round;stroke-miterlimit:4;stroke-dasharray:none;stroke-opacity:1"
           d="m 0,0 c -3.694,3.757 -13.779,18.865 -5.074,25.379 8.705,6.513 12.342,-1.362 13.469,-4.494 -2.63,8.267 -1.148,30.5 20.989,30.746 5.557,0.062 11.221,-3.97 16.572,-10.227" />
      </g>
      <g
         transform="translate(1079.4913,354.9232)"
         id="g166">
        <path
           inkscape:connector-curvature="0"
           id="path168"
           style="fill:#ffffff;fill-opacity:1;fill-rule:evenodd;stroke:none"
           d="m 0,0 c 0,5.602 4.541,10.142 10.142,10.142 5.601,0 10.141,-4.54 10.141,-10.142 0,-5.601 -4.54,-10.141 -10.141,-10.141 C 4.541,-10.141 0,-5.601 0,0" />
      </g>
      <g
         transform="translate(1084.4752,365.5106)"
         id="g170">
        <path
           inkscape:connector-curvature="0"
           id="path172"
           style="fill:none;stroke:#1b3c87;stroke-width:3.69000006;stroke-linecap:round;stroke-linejoin:round;stroke-miterlimit:4;stroke-dasharray:none;stroke-opacity:1"
           d="m 0,0 c 1.291,0.595 2.728,0.927 4.242,0.927 5.601,0 10.141,-4.541 10.141,-10.142 0,-5.6 -4.54,-10.14 -10.141,-10.14 -1.736,0 -3.369,0.436 -4.798,1.205" />
      </g>
    </g>
  </g>
</svg>
