<svg xmlns="http://www.w3.org/2000/svg" xmlns:xlink="http://www.w3.org/1999/xlink" width="214" height="35" viewBox="0 0 214 35">
  <defs>
    <clipPath id="clip-Web_1920_1">
      <rect width="214" height="35"/>
    </clipPath>
  </defs>
  <g id="Web_1920_1" data-name="Web 1920 – 1" clip-path="url(#clip-Web_1920_1)">
    <g id="Page-1" transform="translate(1 1)">
      <g id="RBO-logo" transform="translate(-1 -5)">
        <g id="Group-2" transform="translate(1 5)">
          <path id="Fill-4" d="M47.291,31.321A.931.931,0,0,1,47,30.641V12.434a1.013,1.013,0,0,1,.272-.718.913.913,0,0,1,.7-.291h4.736a.995.995,0,0,1,1.009,1.009v1.475a7.418,7.418,0,0,1,2.542-1.844,7.961,7.961,0,0,1,3.241-.641h1.747a.931.931,0,0,1,.971.971v4.232a.964.964,0,0,1-.272.679.912.912,0,0,1-.7.291h-3.92a3.186,3.186,0,0,0-2.387.854,3.3,3.3,0,0,0-.834,2.407v9.783a.913.913,0,0,1-.291.7,1.012,1.012,0,0,1-.718.272H47.971A.93.93,0,0,1,47.291,31.321Zm19.155-1.592a8.779,8.779,0,0,1-2.853-6.464q-.039-.5-.039-1.747t.039-1.747a8.7,8.7,0,0,1,2.931-6.425,11.064,11.064,0,0,1,7.433-2.31,11.063,11.063,0,0,1,7.433,2.31,8.694,8.694,0,0,1,2.931,6.425q.077,1.009.078,1.747t-.078,1.747a8.778,8.778,0,0,1-2.853,6.464Q78.848,32,73.957,32T66.447,29.729Zm9.879-3.61a5.429,5.429,0,0,0,.893-3.048q.039-.388.039-1.553t-.039-1.553a5.462,5.462,0,0,0-.893-3.028,3.282,3.282,0,0,0-4.736,0,5.462,5.462,0,0,0-.893,3.028l-.039,1.553.039,1.553a5.429,5.429,0,0,0,.893,3.048,3.327,3.327,0,0,0,4.736,0ZM94.2,29.438v1.2a.965.965,0,0,1-.272.679.913.913,0,0,1-.7.291H88.61a1.013,1.013,0,0,1-.718-.272.914.914,0,0,1-.291-.7V5.019a.913.913,0,0,1,.291-.7,1.013,1.013,0,0,1,.718-.272h5.007a.931.931,0,0,1,.97.971v8.269a7.4,7.4,0,0,1,5.628-2.252,7.522,7.522,0,0,1,5.9,2.426,10.205,10.205,0,0,1,2.329,6.658q.039.5.039,1.4,0,.854-.039,1.359a10.257,10.257,0,0,1-2.309,6.755A7.6,7.6,0,0,1,100.216,32,7.327,7.327,0,0,1,94.2,29.438Zm6.269-3.863a5.325,5.325,0,0,0,.873-2.853q.039-.388.039-1.2t-.039-1.2a5.325,5.325,0,0,0-.873-2.853,2.9,2.9,0,0,0-2.5-1.029,3.043,3.043,0,0,0-2.465.99,4.09,4.09,0,0,0-.912,2.5q-.039.5-.039,1.436t.039,1.475a4.7,4.7,0,0,0,.893,2.7,3.491,3.491,0,0,0,4.988.039Zm13.45,4.154a8.778,8.778,0,0,1-2.853-6.464q-.039-.5-.039-1.747t.039-1.747A8.694,8.694,0,0,1,114,13.346a11.063,11.063,0,0,1,7.433-2.31,11.064,11.064,0,0,1,7.433,2.31,8.7,8.7,0,0,1,2.931,6.425q.077,1.009.078,1.747t-.078,1.747a8.779,8.779,0,0,1-2.853,6.464Q126.32,32,121.429,32T113.918,29.729Zm9.878-3.61a5.429,5.429,0,0,0,.893-3.048q.039-.388.039-1.553t-.039-1.553a5.462,5.462,0,0,0-.893-3.028,3.282,3.282,0,0,0-4.736,0,5.462,5.462,0,0,0-.893,3.028l-.039,1.553.039,1.553a5.429,5.429,0,0,0,.893,3.048,3.327,3.327,0,0,0,4.736,0Zm13.566-2.232V16.7H134.3a.995.995,0,0,1-.971-.971V12.395a.914.914,0,0,1,.291-.7.965.965,0,0,1,.68-.272h3.066V5.019a.913.913,0,0,1,.291-.7.964.964,0,0,1,.679-.272h4.774a.931.931,0,0,1,.97.971v6.405h4.852a1.012,1.012,0,0,1,.718.272.913.913,0,0,1,.291.7v3.339a.913.913,0,0,1-.291.7,1.012,1.012,0,0,1-.718.272h-4.852v6.6a3.5,3.5,0,0,0,.5,2.058,1.874,1.874,0,0,0,1.63.7h3.066a.913.913,0,0,1,.7.291,1.012,1.012,0,0,1,.272.718v3.572a.964.964,0,0,1-.272.679.913.913,0,0,1-.7.291h-3.687Q137.362,31.612,137.363,23.886ZM153.18,8.338a1.013,1.013,0,0,1-.272-.718V4.009a.976.976,0,0,1,.291-.718.931.931,0,0,1,.68-.291h4.852a.994.994,0,0,1,1.009,1.009V7.62a.994.994,0,0,1-1.009,1.009h-4.852A.913.913,0,0,1,153.18,8.338Zm.019,22.983a.932.932,0,0,1-.291-.679V12.395a.913.913,0,0,1,.291-.7.965.965,0,0,1,.68-.272h4.852a1.013,1.013,0,0,1,.718.272.913.913,0,0,1,.291.7V30.641a.913.913,0,0,1-.291.7,1.013,1.013,0,0,1-.718.272h-4.852A.931.931,0,0,1,153.2,31.321Zm12.712-1.669a8.725,8.725,0,0,1-2.931-6.542l-.039-1.553.039-1.592a8.64,8.64,0,0,1,2.911-6.561,10.63,10.63,0,0,1,7.181-2.368,12.08,12.08,0,0,1,5.667,1.2,9.191,9.191,0,0,1,3.416,2.853,6.117,6.117,0,0,1,1.2,3.009.833.833,0,0,1-.272.718,1.041,1.041,0,0,1-.738.291h-5.2a1,1,0,0,1-.66-.194,1.734,1.734,0,0,1-.427-.621,3.524,3.524,0,0,0-1.106-1.592,2.819,2.819,0,0,0-1.727-.5q-2.989,0-3.105,3.96l-.039,1.475.039,1.281a4.813,4.813,0,0,0,.815,2.97,2.783,2.783,0,0,0,2.29.951,2.863,2.863,0,0,0,1.766-.485,3.537,3.537,0,0,0,1.067-1.611,1.734,1.734,0,0,1,.427-.621,1,1,0,0,1,.66-.194h5.2a1.033,1.033,0,0,1,.7.272.845.845,0,0,1,.311.66,5.707,5.707,0,0,1-1.067,2.892,9.042,9.042,0,0,1-3.4,2.97A11.963,11.963,0,0,1,173.073,32,10.61,10.61,0,0,1,165.912,29.651ZM186.5,31.34a.914.914,0,0,1-.291-.7V5.019a.913.913,0,0,1,.291-.7,1.013,1.013,0,0,1,.718-.272h4.736a.931.931,0,0,1,.971.971V17.985l5.162-5.9q.077-.078.291-.272a1.562,1.562,0,0,1,.446-.291,1.522,1.522,0,0,1,.582-.1h5.473a.821.821,0,0,1,.6.252.868.868,0,0,1,.252.641.855.855,0,0,1-.272.621l-6.832,7.531,7.8,9.667a1.043,1.043,0,0,1,.272.582.863.863,0,0,1-.893.893h-5.628a1.469,1.469,0,0,1-.757-.155,3.533,3.533,0,0,1-.6-.5l-5.9-7.3v6.988a.964.964,0,0,1-.272.679.913.913,0,0,1-.7.291h-4.736A1.013,1.013,0,0,1,186.5,31.34Zm23.29-1.883q-2.717-2.543-2.795-7.4v-1.2a10.017,10.017,0,0,1,2.872-7.221,10.166,10.166,0,0,1,7.336-2.6,11.089,11.089,0,0,1,5.648,1.339,8.483,8.483,0,0,1,3.455,3.688,12.028,12.028,0,0,1,1.145,5.338v.971a.994.994,0,0,1-1.009,1.009h-12.3v.233a4.871,4.871,0,0,0,.815,2.815,2.572,2.572,0,0,0,2.213,1.068,2.689,2.689,0,0,0,1.494-.369,5.173,5.173,0,0,0,1.068-.951,2.028,2.028,0,0,1,.563-.485,1.751,1.751,0,0,1,.679-.1h5.085a.9.9,0,0,1,.6.214.661.661,0,0,1,.252.524,3.958,3.958,0,0,1-1.145,2.368,9.084,9.084,0,0,1-3.338,2.329,12.725,12.725,0,0,1-5.182.971A10.474,10.474,0,0,1,209.793,29.457Zm10.519-10.035v-.078a4.552,4.552,0,0,0-.815-2.892,2.755,2.755,0,0,0-2.29-1.029,2.7,2.7,0,0,0-2.271,1.029,4.633,4.633,0,0,0-.8,2.892v.078Zm12.479,4.465V16.7h-3.066a1,1,0,0,1-.971-.971V12.395a.913.913,0,0,1,.291-.7.964.964,0,0,1,.679-.272h3.066V5.019a.913.913,0,0,1,.291-.7.964.964,0,0,1,.68-.272h4.774a.931.931,0,0,1,.971.971v6.405h4.852a1.012,1.012,0,0,1,.718.272.913.913,0,0,1,.291.7v3.339a.913.913,0,0,1-.291.7,1.012,1.012,0,0,1-.718.272h-4.852v6.6a3.5,3.5,0,0,0,.5,2.058,1.873,1.873,0,0,0,1.63.7h3.066a.912.912,0,0,1,.7.291,1.013,1.013,0,0,1,.272.718v3.572a.964.964,0,0,1-.272.679.912.912,0,0,1-.7.291H241.02Q232.791,31.612,232.791,23.886ZM249.743,31.4a.7.7,0,0,1-.225-.539V26.908a.767.767,0,0,1,.779-.779h3.954a.7.7,0,0,1,.539.225.782.782,0,0,1,.21.554v3.954a.745.745,0,0,1-.21.524.7.7,0,0,1-.539.225H250.3A.781.781,0,0,1,249.743,31.4Z" transform="translate(-45 -1)" fill="#a3106e" fill-rule="evenodd"/>
        </g>
      </g>
    </g>
  </g>
</svg>